<svg xmlns="http://www.w3.org/2000/svg" xmlns:xlink="http://www.w3.org/1999/xlink" viewBox="0 0 4680 3120"><defs><style>.cls-1{fill:none;}.cls-2,.cls-7{fill:#fff;}.cls-2{opacity:0;}.cls-3{fill:#cce3ff;}.cls-4{fill:#e7f3ff;}.cls-5{fill:#ffb37b;}.cls-6{fill:#ef4c48;}.cls-8{opacity:0.3;}.cls-9{fill:#75a1dd;}.cls-10{clip-path:url(#clip-path);}.cls-11{opacity:0.5;}.cls-12{fill:#3f6bac;}.cls-13{clip-path:url(#clip-path-2);}.cls-14{fill:#0f2e51;}.cls-15{clip-path:url(#clip-path-3);}.cls-16{fill:#092038;}.cls-17{clip-path:url(#clip-path-4);}.cls-18{fill:#ef9152;}.cls-19{fill:#683310;}.cls-20{fill:#3f1e07;}.cls-21{fill:#f27949;}.cls-22{fill:#aac6fc;}.cls-23{fill:#c2ddfb;}.cls-24{opacity:0.6;}.cls-25{fill:#83b3ff;}.cls-26{clip-path:url(#clip-path-5);}.cls-27{fill:#323f5f;}.cls-28{fill:#335e82;}.cls-29{fill:#ff9739;}.cls-30{clip-path:url(#clip-path-6);}.cls-31{fill:#ef7714;}.cls-32{clip-path:url(#clip-path-7);}.cls-33{fill:#8fb8ea;}.cls-34{fill:#1b446d;}.cls-35{clip-path:url(#clip-path-8);}.cls-36{clip-path:url(#clip-path-9);}.cls-37{fill:#ffc1b3;}.cls-38{clip-path:url(#clip-path-11);}.cls-39{fill:#ea8b49;}.cls-40{clip-path:url(#clip-path-12);}.cls-41{fill:#4475bd;}.cls-42{clip-path:url(#clip-path-13);}.cls-43{clip-path:url(#clip-path-14);}.cls-44{fill:#3b6d96;}.cls-45{clip-path:url(#clip-path-15);}.cls-46{clip-path:url(#clip-path-16);}.cls-47{opacity:0.4;}</style><clipPath id="clip-path"><path class="cls-1" d="M1777.15,2571.24l-89.4,4.41-85.08,4.2s-26.78-594.43-36.23-681.36c-.75-6.85-1.37-10.54-1.88-10.56-5.11-.15-5.76,372.65-5.76,572.54,0,73.2.1,123.21.1,123.21l-1.33,0-198.87-5.45L1382.17,1682l328.53-.77Z"/></clipPath><clipPath id="clip-path-2"><path class="cls-1" d="M1490.92,1259.26s-94.46,14.81-138,58.29-46.81,77.48-35,161.27,28.72,152.44,60.08,166.23l-2.53,49.31,332.7-.26-6.47-149.47s42.2,32.13,101.53,31.39c78.68-1,157.64-56.23,157.64-56.23L1893,1438l-125,7.31S1703.36,1228.88,1490.92,1259.26Z"/></clipPath><clipPath id="clip-path-3"><path class="cls-1" d="M1469.45,1057s6.69-43.08,67.14-47.9c56.11-4.47,42.92,32,42.92,32s35.63-8.92,51,18-3,45.54-12.61,48.48-175.29,71.6-175.29,71.6S1354,1094.63,1469.45,1057Z"/></clipPath><clipPath id="clip-path-4"><path class="cls-1" d="M1465.69,1206.1c7.22.64,10.4,2.11,15.93-1.13l-4.38,75.28s41,26.08,62.52,26.94,45.87-27.68,33.39-35.13c-3.45-2.07-6.28-6.38-8.57-11.55-3-6.86-5.12-15.27-6.41-21.83,4.7-.32,9.3-1.76,14.13-2.37,40-5,59-54.16,49.94-98.57-2.83-14-3.56-21.49-8.38-30.39,0,0-24.28,9.13-32.31-10.14s-1.82-8.42-17.58,9.51-32.44,7.78-32.44,7.78l-2.33-14.63s-6.4,19.35-23.2,25.16c-16.52,5.71-31.33,28.6-31.64,28.64a31.66,31.66,0,0,0-4.07-.61c-16.77-1.46-31.4,9.23-32.66,23.89S1448.92,1204.64,1465.69,1206.1Z"/></clipPath><clipPath id="clip-path-5"><path class="cls-1" d="M1608.38,1493s8.3-25.91,14.34-35.15,13.77-23.25,13.77-23.25l13.66,16.36s37.46-33.25,46.06-32.62c7,.5-14.49,29.86-23,41.15a.61.61,0,0,0,.87.84c11.07-9.14,40.61-32.6,46.83-28,7.24,5.37-31,44.33-35.43,48.76a.06.06,0,0,0,.08.1c3.91-2.48,37.43-23.43,41.68-19.69,4.59,4-26.2,37.68-26.2,37.68s18.35-3.41,24.78.68-80.24,59.71-80.24,59.71Z"/></clipPath><clipPath id="clip-path-6"><path class="cls-1" d="M2714.5,619.8c-15.8-24.47-51-25.2-79.77-20.43a462.8,462.8,0,0,0-99.06,28c-15.19,6.2-30.51,13.54-41.38,25.83-10.38,11.73-15.83,27-19.08,42.34-7.34,34.56-4.51,70.57,2.4,105.22,5.73,28.71,14,59.81,1.1,86.11-7.64,15.63-21.7,27-32.64,40.5s-19,32.19-11.92,48.07c5.22,11.67,17.43,18.94,23.1,30.4,6.84,13.83,2.7,30.53-3.48,44.67s-14.42,27.91-15.69,43.29c-2.59,31.34,23.77,57,49.32,75.32,13.92,10,28.52,19.44,44.82,24.7,24.06,7.75,50,5.83,75.24,3.82L2829,1180c5.76-.46,11.94-1.09,16.32-4.86,3.55-3.07,5.28-7.72,6.55-12.24,6.15-21.92,4.74-45.67,12.85-66.94,11.1-29.09,38.51-49.69,49.38-78.88,15.06-40.43-7.08-87.68-42.22-112.71-16.78-11.94-37.09-20.9-47.25-38.81-13.44-23.69-4.06-53.09,3-79.4,5.9-21.94,10-44.46,10.53-67.17.55-22.09-2.47-44.91-13.58-64-19.71-33.87-65.61-49.67-102-35.12Z"/></clipPath><clipPath id="clip-path-7"><path class="cls-1" d="M2288.91,991.08a27.86,27.86,0,0,0-13.45-27l-72.69-43.87-301-181.66-84.69,319.34,351.48-8.61,84.88-2.08a27.87,27.87,0,0,0,25-16.76,145.6,145.6,0,0,0,10.45-39.4Z"/></clipPath><clipPath id="clip-path-8"><path class="cls-1" d="M2163.72,1171.37s-9.55-62.55-31.38-85.34-81.68-35.37-84.14-26.54,45.81,45.94,45.81,45.94-21.61,53.47,1,80.87l-22.56,41.7,70.6,68s59.92-43.15,56.09-100.71Z"/></clipPath><clipPath id="clip-path-9"><path class="cls-1" d="M2631.15,1017.21l-48.14,7.13s-105.42,20.91-136.35,75.63-82.49,234.44-82.49,234.44L2171,1176.32s-36.08,74.56-64.36,84.66c92.63,122,140.94,166.19,140.94,166.19h758.79l8.84-268.05s-54.5-102.13-85.44-110.73c-24.21-6.72-108.61-38.88-144.12-52.53a59.16,59.16,0,0,0-32.76-2.81Z"/></clipPath><clipPath id="clip-path-11"><path class="cls-1" d="M2782.23,994.14S2752,991.19,2733.35,975s-16.12-72.65-4.1-88.62a13.16,13.16,0,0,0,1.69-3.24c15.72.74,32.82-6.75,45-21.36,19-22.72,18.87-54-.18-69.91-17.22-14.37-44.05-11.22-63,6.29-8.22,3.27-24.78,7.89-49.53,5.64a57.63,57.63,0,0,0,24.3,6.38s-40.09,10.86-62,2.77-50.09-30.83-50.66-58.17c-.73-35.35-22.27-76.6-56.79-50.82,0,0-18.33,24.31-19.8,49.35s6.54,77.36,9.9,94.29,17.35,118.56,129.3,86.16c8.84,42-4,58.92-12,69.23s-42.46,23.57-42.46,23.57,7.27,22.09,5.8,44.19-13.26,36.09,0,38.3,64.07-21.36,82.49-19.15,99.43,11,108.27,7.36-7.37-34.61-5.16-56S2782.23,994.14,2782.23,994.14Z"/></clipPath><clipPath id="clip-path-12"><path class="cls-1" d="M2914.26,1496.23s-.73-34.62-16.2-44.19-32.41-44.93-42-40.51,3,42.72,10.31,49.34-25.78,22.1-36.83,22.84-67.75-31.67-77.33-25,2.21,17.67,15.47,28,113.42,72.92,113.42,72.92Z"/></clipPath><clipPath id="clip-path-13"><path class="cls-1" d="M3378.68,1725.52l67,889.78-202.45,18.16-16.9-542.22-40.88,534.56-200.16-12s75.38-901.58,105.64-946S3378.68,1725.52,3378.68,1725.52Z"/></clipPath><clipPath id="clip-path-14"><path class="cls-1" d="M3402.27,1043.73s7.3-46.42-46.38-73.48-37.68,12.42-37.68,12.42-42.89-17.91-80.84,4.2,3.33,58.55,3.33,58.55l88.6,140.86S3507,1133.48,3402.27,1043.73Z"/></clipPath><clipPath id="clip-path-15"><path class="cls-1" d="M3208.75,1117.64s-3.13-4.49,6.9-14.86c3.93-45.32,28.54-69.89,28.54-69.89,12.08,22.83,34.09,28.25,35.66,10.12,5,6.76,34.11,36,34.11,36s-9.16,65.24-3.65,66.42,20.28-9.26,20.28-9.26c.65-.57,1.29-1.14,2-1.68,15.24-11.89,35.73-11.1,45.76,1.76s5.83,32.93-9.41,44.82c-8.34,6.51-18.26,9.2-27.17,8.2l-1.61,57.8-89.95-7.79a338.33,338.33,0,0,0,12.81-42.45C3184.18,1198.41,3208.75,1117.64,3208.75,1117.64Z"/></clipPath><clipPath id="clip-path-16"><path class="cls-1" d="M3404.05,1631.78,3485,1772.61c-2.54-3.84-25.17-33.78-92.4,1.53-23.8,12.5-51.13,24-79.26,33.89-94.57,33.28-198.17,48.46-207.54,22.69-12.15-33.45-33.15-164.5-33.15-164.5s-19,9.46-59.21,0-162.58-95.6-162.58-95.6l58.29-104.41,128.15,50.27s50.82-200,99.43-228.69,99.56-49.73,99.56-49.73,97.09-14.41,134.65,0,55.24,39,55.24,39,77.34,43.84,79.55,121.22c1.17,40.9-27.29,103.78-54.38,154v0c-23.8,44.08-46.51,78.38-47.24,79.5Z"/></clipPath></defs><title>10</title><g id="_10" data-name="10"><rect id="_10-2" data-name="10" class="cls-2" width="4680" height="3120"/><ellipse class="cls-3" cx="1486.11" cy="2615.01" rx="509.08" ry="86.28"/><ellipse class="cls-3" cx="3193.89" cy="2662.81" rx="509.08" ry="86.28"/><path class="cls-4" d="M3170.65,799.92l-270.94-53.68a599.17,599.17,0,0,1-219.18-91.41L2427.26,483.56a599.14,599.14,0,0,0-588.37-46.93l-150.4,70C1414.77,634,1278.53,945,1370.58,1232.52c50.45,157.57,106.33,332.09,157.6,492.18,97.22,303.57,415.09,477.87,723.33,396.63L2713,1999.7a599.25,599.25,0,0,1,178.22-19.24l137.45,5.86c341.54,14.56,626-259.12,624.7-601h0C3652.26,1100.2,3450.36,855.34,3170.65,799.92Z"/><path class="cls-5" d="M1755.48,2466.29l-144,42.62,1,30a25.72,25.72,0,0,1,25,17.3c3.63,10.72,11.86,22,30.53,20.15,34.5-3.37,62-37,62-37l32.55.89C1753,2483.62,1755.48,2466.29,1755.48,2466.29Z"/><path class="cls-6" d="M1883.22,2623.49c-39-22.91-108.51-15-119.48-76.84-.41-2.24-.75-4.33-1.11-6.48l-32.54-.88s-27.53,33.65-62,37c-18.67,1.82-26.89-9.45-30.54-20.16a25.71,25.71,0,0,0-25-17.29l2.08,60.7.23,6.73,1.79,51.85,104.23,2.87,40.68,1.11,164.71,4.51S1922.22,2646.4,1883.22,2623.49Z"/><path class="cls-7" d="M1672.38,2607.51a106.9,106.9,0,0,0-58.09-23.68l-2.26-.2.41,11.89,1.74.18a94.9,94.9,0,0,1,50.64,21,93.85,93.85,0,0,1,29.71,44.25l.43,1.36,12.43.34-.75-2.62A107,107,0,0,0,1672.38,2607.51Zm25.52,50.85a97.42,97.42,0,0,0-81.58-66.46l-.13-3.86a102.82,102.82,0,0,1,53.65,22.56h0a102.88,102.88,0,0,1,32.16,47.87Z"/><path class="cls-7" d="M1848.43,2608.1l-1-.28-.81.68a53.37,53.37,0,0,1-55.67,8.5c-31.19-13.41-49.13-38.89-54.84-77.89l-.25-1.67-5.75-.15h-1.25l-.44.89c-.36.43-1.43,1.67-3.08,3.43l-.67.71.16,1c6.78,42.09,26.88,69.77,61.43,84.62a64.23,64.23,0,0,0,23.7,5.21q.87,0,1.74,0A66.54,66.54,0,0,0,1858,2614l2.4-2.36-3.22-1C1854.21,2609.76,1851.26,2608.89,1848.43,2608.1Zm-38.38,21a60.32,60.32,0,0,1-22.23-4.9c-32.93-14.15-52.21-40.52-58.91-80.61.58-.63,1.43-1.56,2.07-2.31l1.4,0c6.19,39.56,24.84,65.51,57,79.32a57.29,57.29,0,0,0,59-8.43c1.43.4,2.88.82,4.35,1.25A62.47,62.47,0,0,1,1810.05,2629.13Z"/><polygon class="cls-7" points="1761.5 2662.13 1720.83 2661.01 1616.59 2658.14 1617.93 2682.02 1727.42 2685.03 1767.07 2686.12 1927.57 2690.54 1926.21 2666.63 1761.5 2662.13"/><g class="cls-8"><path d="M1721.5,2662.31c-.22-.43-.43-.86-.68-1.3-15.77-30.45-47.58-50.55-80.57-53.68-8.48-.77-17-.59-25.45-1l1.79,51.85,1.34,23.88,109.49,3c0-.2,0-.43,0-.63.34-6.69-1.83-13.23-4.6-19.26C1722.43,2664.19,1722,2663.24,1721.5,2662.31Z"/></g><path class="cls-5" d="M1520.84,2468.2l-144,42.62,1,29.95a25.71,25.71,0,0,1,25,17.29c3.63,10.72,11.86,22,30.53,20.16,34.5-3.38,62-37,62-37l32.55.89C1518.37,2485.52,1520.84,2468.2,1520.84,2468.2Z"/><path class="cls-6" d="M1648.59,2625.4c-39-22.91-108.51-15-119.48-76.83-.4-2.26-.75-4.34-1.11-6.48l-32.55-.89s-27.52,33.64-62,37c-18.67,1.83-26.9-9.44-30.53-20.16a25.71,25.71,0,0,0-25-17.29L1382,2660l309.62,8.52S1687.59,2648.31,1648.59,2625.4Z"/><path class="cls-7" d="M1437.75,2609.42a106.93,106.93,0,0,0-58.1-23.68l-2.25-.2.41,11.89,1.74.18a94.94,94.94,0,0,1,50.64,21,93.94,93.94,0,0,1,29.71,44.25l.42,1.36,12.44.34-.76-2.63A107,107,0,0,0,1437.75,2609.42Zm25.52,50.85a97.41,97.41,0,0,0-81.59-66.46l-.13-3.86a102.85,102.85,0,0,1,53.65,22.55h0a102.81,102.81,0,0,1,32.16,47.87Z"/><path class="cls-7" d="M1613.79,2610l-1-.28-.8.68a53.38,53.38,0,0,1-55.67,8.5c-31.2-13.41-49.14-38.89-54.85-77.89l-.24-1.67-5.76-.15h-1.24l-.45.89c-.36.43-1.43,1.67-3.07,3.43l-.68.71.16,1c6.79,42.09,26.89,69.77,61.44,84.62a64.19,64.19,0,0,0,23.7,5.21q.87,0,1.74,0a66.56,66.56,0,0,0,46.34-19.14l2.4-2.36-3.22-1C1619.5,2611.64,1616.63,2610.8,1613.79,2610Zm-38.37,21a60.11,60.11,0,0,1-22.23-4.89c-32.94-14.15-52.21-40.53-58.91-80.61.58-.64,1.42-1.56,2.07-2.31l1.4,0c6.19,39.56,24.84,65.51,57,79.32a57.29,57.29,0,0,0,59-8.44l4.35,1.26A62.39,62.39,0,0,1,1575.42,2631Z"/><polygon class="cls-7" points="1381.96 2660.03 1383.29 2683.93 1692.92 2692.45 1691.58 2668.55 1381.96 2660.03"/><path class="cls-9" d="M1382.17,1682l-23.47,896.16,198.87,5.45,1.33,0s-.1-50-.1-123.21c0-199.89.65-572.69,5.76-572.54.51,0,1.13,3.71,1.88,10.56,9.45,86.93,36.23,681.36,36.23,681.36l85.08-4.2,89.4-4.41-66.45-890Z"/><g class="cls-10"><path class="cls-7" d="M1419.13,1791.81c-2.61,3-5.33,5.9-8.09,8.73a2,2,0,0,0,1.44,3.4,2,2,0,0,0,1.43-.61c2.8-2.88,5.57-5.86,8.22-8.88a2,2,0,1,0-3-2.64Z"/><path class="cls-7" d="M1384.31,1824.18c-3.16,2.4-6.41,4.74-9.66,7a2,2,0,0,0-.53,2.78,2,2,0,0,0,1.66.87,2,2,0,0,0,1.12-.35c3.31-2.25,6.61-4.63,9.83-7.07a2,2,0,1,0-2.42-3.19Z"/><path class="cls-7" d="M1402.53,1808.86c-2.89,2.69-5.89,5.34-8.91,7.89a2,2,0,0,0,1.28,3.53,2,2,0,0,0,1.29-.47c3.08-2.59,6.13-5.28,9.07-8a2,2,0,0,0-2.73-2.93Z"/><path class="cls-7" d="M1481,1662.87a2,2,0,0,0-2.33,1.62c-.67,3.75-1.42,7.51-2.22,11.18a2,2,0,0,0,3.91.86c.81-3.73,1.57-7.54,2.25-11.34A2,2,0,0,0,1481,1662.87Z"/><path class="cls-7" d="M1364.64,1837.59c-3.42,2.07-6.89,4.06-10.34,5.91a2,2,0,1,0,1.89,3.52c3.51-1.88,7-3.9,10.53-6a2,2,0,1,0-2.08-3.41Z"/><path class="cls-7" d="M1343.65,1848.8c-6.77,3.1-10.9,4.46-10.94,4.48a2,2,0,0,0,.62,3.9,2,2,0,0,0,.62-.1,120.37,120.37,0,0,0,11.37-4.65,2,2,0,1,0-1.67-3.63Z"/><path class="cls-7" d="M1476.09,1685.83a2,2,0,0,0-2.44,1.43c-1,3.85-2.09,7.7-3.24,11.46a2,2,0,0,0,1.33,2.49,2,2,0,0,0,.58.09,2,2,0,0,0,1.91-1.41c1.17-3.81,2.27-7.72,3.29-11.62A2,2,0,0,0,1476.09,1685.83Z"/><path class="cls-7" d="M1469.24,1708.8a2,2,0,0,0-2.55,1.22c-1.32,3.74-2.74,7.49-4.22,11.14a2,2,0,0,0,1.11,2.6,2,2,0,0,0,.75.15,2,2,0,0,0,1.85-1.25c1.5-3.71,2.94-7.51,4.28-11.3A2,2,0,0,0,1469.24,1708.8Z"/><path class="cls-7" d="M1436.73,1772.74a2,2,0,0,0-2.79.46c-2.31,3.21-4.72,6.4-7.18,9.49a2,2,0,0,0,1.57,3.24,2,2,0,0,0,1.56-.75c2.5-3.14,5-6.39,7.3-9.65A2,2,0,0,0,1436.73,1772.74Z"/><path class="cls-7" d="M1449.57,1752.49a2,2,0,0,0-2.73.73c-2,3.42-4.07,6.83-6.21,10.14a2,2,0,0,0,.6,2.77,1.94,1.94,0,0,0,1.08.32,2,2,0,0,0,1.68-.92c2.18-3.36,4.3-6.83,6.31-10.31A2,2,0,0,0,1449.57,1752.49Z"/><path class="cls-7" d="M1460.42,1731.1a2,2,0,0,0-2.66,1c-1.65,3.61-3.4,7.21-5.21,10.7a2,2,0,0,0,.86,2.7,2,2,0,0,0,2.7-.86c1.83-3.55,3.61-7.21,5.29-10.87A2,2,0,0,0,1460.42,1731.1Z"/><path class="cls-7" d="M1696.86,1725.16c-.67-3.85-1.3-7.83-1.9-11.83a2,2,0,1,0-4,.59c.59,4,1.24,8,1.91,11.92a2,2,0,0,0,2,1.66,2.07,2.07,0,0,0,.35,0A2,2,0,0,0,1696.86,1725.16Z"/><path class="cls-7" d="M1691.61,1703.69a2,2,0,0,0,1.74-2.23c-.49-3.91-.95-7.91-1.36-11.91a2,2,0,0,0-4,.41c.42,4,.88,8.06,1.37,12a2,2,0,0,0,2,1.75Z"/><path class="cls-7" d="M1701.58,1748.62c-.88-3.79-1.73-7.72-2.53-11.69a2,2,0,1,0-3.92.78c.81,4,1.67,8,2.56,11.82a2,2,0,0,0,1.94,1.54,1.85,1.85,0,0,0,.46,0A2,2,0,0,0,1701.58,1748.62Z"/><path class="cls-7" d="M1689.05,1679.77a2,2,0,0,0,1.83-2.16c-.34-4-.63-8-.88-12a2,2,0,0,0-4,.25c.25,4,.55,8,.88,12a2,2,0,0,0,2,1.84Z"/><path class="cls-7" d="M1687.46,1655.75a2,2,0,0,0,1.91-2.08c-.31-7.5-.32-12-.32-12a2,2,0,0,0-2-2h0a2,2,0,0,0-2,2s0,4.59.33,12.17a2,2,0,0,0,2,1.92Z"/><path class="cls-7" d="M1733.58,1824.77a2,2,0,1,0-3.15,2.47,92.37,92.37,0,0,0,8.16,9.13,2,2,0,1,0,2.79-2.87A86.7,86.7,0,0,1,1733.58,1824.77Z"/><path class="cls-7" d="M1757.65,1845.21a58.54,58.54,0,0,1-7.31-4.31,2,2,0,1,0-2.27,3.29,62.1,62.1,0,0,0,7.81,4.6,2,2,0,0,0,.88.21,2,2,0,0,0,.89-3.79Z"/><path class="cls-7" d="M1721,1804.81a2,2,0,1,0-3.56,1.82c1.91,3.73,3.92,7.29,6,10.6a2,2,0,0,0,1.7.94,2.05,2.05,0,0,0,1.06-.3,2,2,0,0,0,.64-2.76C1724.84,1811.9,1722.89,1808.43,1721,1804.81Z"/><path class="cls-7" d="M1711.62,1783a2,2,0,0,0-3.76,1.37c1.42,3.9,2.92,7.69,4.46,11.28a2,2,0,0,0,1.84,1.21,2,2,0,0,0,.78-.16,2,2,0,0,0,1-2.63C1714.49,1790.53,1713,1786.81,1711.62,1783Z"/><path class="cls-7" d="M1707.81,1771.68c-1.15-3.68-2.27-7.54-3.33-11.46a2,2,0,1,0-3.86,1c1.07,4,2.2,7.88,3.37,11.62a2,2,0,0,0,1.91,1.4,2.08,2.08,0,0,0,.6-.09A2,2,0,0,0,1707.81,1771.68Z"/><path class="cls-7" d="M1420.92,2226.72a2,2,0,0,0-2,2l-.29,12a2,2,0,0,0,2,2h0a2,2,0,0,0,2-1.95l.28-12A2,2,0,0,0,1420.92,2226.72Z"/><path class="cls-7" d="M1417.53,2370.68a2,2,0,0,0-2,2l-.28,12a2,2,0,0,0,2,2h0a2,2,0,0,0,2-1.95l.28-12A2,2,0,0,0,1417.53,2370.68Z"/><path class="cls-7" d="M1417,2394.68h0a2,2,0,0,0-2,2l-.28,12a2,2,0,0,0,1.95,2h.05a2,2,0,0,0,2-2l.28-12A2,2,0,0,0,1417,2394.68Z"/><path class="cls-7" d="M1420.36,2250.72a2,2,0,0,0-2,2l-.28,12a2,2,0,0,0,2,2h0a2,2,0,0,0,2-1.95l.28-12A2,2,0,0,0,1420.36,2250.72Z"/><path class="cls-7" d="M1418.66,2322.7a2,2,0,0,0-2.05,2l-.28,12a2,2,0,0,0,2,2h0a2,2,0,0,0,2-2l.28-12A2,2,0,0,0,1418.66,2322.7Z"/><path class="cls-7" d="M1419.79,2274.71a2,2,0,0,0-2,1.95l-.29,12a2,2,0,0,0,2,2h0a2,2,0,0,0,2-2l.28-12A2,2,0,0,0,1419.79,2274.71Z"/><path class="cls-7" d="M1419.23,2298.7a2,2,0,0,0-2,2l-.28,12a2,2,0,0,0,1.95,2h.05a2,2,0,0,0,2-1.95l.28-12A2,2,0,0,0,1419.23,2298.7Z"/><path class="cls-7" d="M1418.1,2346.69h0a2,2,0,0,0-2,1.95l-.28,12a2,2,0,0,0,2,2.05h0a2,2,0,0,0,2-2l.28-12A2,2,0,0,0,1418.1,2346.69Z"/><path class="cls-7" d="M1413.58,2538.64h0a2,2,0,0,0-2,2l-.28,12a2,2,0,0,0,2,2h0a2,2,0,0,0,2-2l.29-12A2,2,0,0,0,1413.58,2538.64Z"/><path class="cls-7" d="M1413,2562.63a2,2,0,0,0-2,1.95l-.28,12a2,2,0,0,0,2,2.05h0a2,2,0,0,0,2-2l.28-12A2,2,0,0,0,1413,2562.63Z"/><path class="cls-7" d="M1412.44,2586.62h0a2,2,0,0,0-2,2l-.28,12a2,2,0,0,0,2,2h0a2,2,0,0,0,2-1.95l.29-12A2,2,0,0,0,1412.44,2586.62Z"/><path class="cls-7" d="M1414.14,2514.64a2,2,0,0,0-2.05,2l-.28,12a2,2,0,0,0,2,2h0a2,2,0,0,0,2-1.95l.28-12A2,2,0,0,0,1414.14,2514.64Z"/><path class="cls-7" d="M1415.84,2442.66a2,2,0,0,0-2,2l-.28,12a2,2,0,0,0,2,2h0a2,2,0,0,0,2-1.95l.28-12A2,2,0,0,0,1415.84,2442.66Z"/><path class="cls-7" d="M1414.71,2490.65h0a2,2,0,0,0-2,1.95l-.28,12a2,2,0,0,0,1.95,2.05h.05a2,2,0,0,0,2-2l.28-12A2,2,0,0,0,1414.71,2490.65Z"/><path class="cls-7" d="M1416.4,2418.67h-.05a2,2,0,0,0-2,1.95l-.28,12a2,2,0,0,0,2,2.05h0a2,2,0,0,0,2-2l.28-12A2,2,0,0,0,1416.4,2418.67Z"/><path class="cls-7" d="M1415.27,2466.66h0a2,2,0,0,0-2,2l-.28,12a2,2,0,0,0,2,2h0a2,2,0,0,0,2-2l.28-12A2,2,0,0,0,1415.27,2466.66Z"/><path class="cls-7" d="M1426,2010.78a2,2,0,0,0-2,2l-.28,12a2,2,0,0,0,2,2h0a2,2,0,0,0,2-2l.28-12A2,2,0,0,0,1426,2010.78Z"/><path class="cls-7" d="M1427.14,1962.8a2,2,0,0,0-2.05,2l-.28,12a2,2,0,0,0,2,2h0a2,2,0,0,0,2-2l.28-12A2,2,0,0,0,1427.14,1962.8Z"/><path class="cls-7" d="M1428.27,1914.81h0a2,2,0,0,0-2,2l-.28,12a2,2,0,0,0,2,2h0a2,2,0,0,0,2-2l.28-12A2,2,0,0,0,1428.27,1914.81Z"/><path class="cls-7" d="M1427.7,1938.8a2,2,0,0,0-2,2l-.28,12a2,2,0,0,0,1.95,2h.05a2,2,0,0,0,2-2l.29-12A2,2,0,0,0,1427.7,1938.8Z"/><path class="cls-7" d="M1429.4,1866.82a2,2,0,0,0-2.05,2l-.28,12a2,2,0,0,0,2,2h0a2,2,0,0,0,2-2l.28-12A2,2,0,0,0,1429.4,1866.82Z"/><path class="cls-7" d="M1428.83,1890.82a2,2,0,0,0-2,2l-.28,12a2,2,0,0,0,2,2h0a2,2,0,0,0,2-2l.29-12A2,2,0,0,0,1428.83,1890.82Z"/><path class="cls-7" d="M1431.1,1794.84h0a2,2,0,0,0-2,2l-.28,12a2,2,0,0,0,2,2h0a2,2,0,0,0,2-1.95l.28-12A2,2,0,0,0,1431.1,1794.84Z"/><path class="cls-7" d="M1430,1842.83a2,2,0,0,0-2,2l-.28,12a2,2,0,0,0,1.95,2h.05a2,2,0,0,0,2-2l.29-12A2,2,0,0,0,1430,1842.83Z"/><path class="cls-7" d="M1430.53,1818.84a2,2,0,0,0-2,2l-.28,12a2,2,0,0,0,2,2h0a2,2,0,0,0,2-1.95l.28-12A2,2,0,0,0,1430.53,1818.84Z"/><path class="cls-7" d="M1421.49,2202.73h0a2,2,0,0,0-2,1.95l-.28,12a2,2,0,0,0,1.95,2.05h.05a2,2,0,0,0,2-2l.28-12A2,2,0,0,0,1421.49,2202.73Z"/><path class="cls-7" d="M1423.18,2130.75h0a2,2,0,0,0-2,1.95l-.29,12a2,2,0,0,0,2,2h0a2,2,0,0,0,2-2l.29-12A2,2,0,0,0,1423.18,2130.75Z"/><path class="cls-7" d="M1423.75,2106.76h0a2,2,0,0,0-2,1.95l-.28,12a2,2,0,0,0,1.95,2h.05a2,2,0,0,0,2-1.95l.28-12A2,2,0,0,0,1423.75,2106.76Z"/><path class="cls-7" d="M1422.62,2154.74a2,2,0,0,0-2,2l-.28,12a2,2,0,0,0,2,2h0a2,2,0,0,0,2-1.95l.28-12A2,2,0,0,0,1422.62,2154.74Z"/><path class="cls-7" d="M1426.57,1986.79h0a2,2,0,0,0-2,2l-.29,12a2,2,0,0,0,2,2h0a2,2,0,0,0,2-2l.29-12A2,2,0,0,0,1426.57,1986.79Z"/><path class="cls-7" d="M1422.05,2178.74h0a2,2,0,0,0-2,2l-.29,12a2,2,0,0,0,2,2h0a2,2,0,0,0,2-1.95l.29-12A2,2,0,0,0,1422.05,2178.74Z"/><path class="cls-7" d="M1425.44,2034.78a2,2,0,0,0-2,2l-.29,12a2,2,0,0,0,2,2h0a2,2,0,0,0,2-1.95l.29-12A2,2,0,0,0,1425.44,2034.78Z"/><path class="cls-7" d="M1424.88,2058.77h-.05a2,2,0,0,0-2,1.95l-.28,12a2,2,0,0,0,2,2.05h0a2,2,0,0,0,2-2l.28-12A2,2,0,0,0,1424.88,2058.77Z"/><path class="cls-7" d="M1424.31,2082.76a2,2,0,0,0-2,2l-.29,12a2,2,0,0,0,2,2.05h0a2,2,0,0,0,2-2l.29-12A2,2,0,0,0,1424.31,2082.76Z"/><g class="cls-8"><path d="M1567.94,1656h0a2,2,0,0,0-2,2l-2.27,234.08a2,2,0,0,0,2,2h0a2,2,0,0,0,2-2l2.27-234.08A2,2,0,0,0,1567.94,1656Z"/></g><g class="cls-8"><path d="M1603.61,1650a2,2,0,0,0-1.88,2.12c0,.41,2.4,41.3.87,84.6-2,56.78-9.67,91.8-22.17,101.27a11.9,11.9,0,0,1-11.85,1.7,2,2,0,1,0-1.31,3.78,18,18,0,0,0,6,1.07,15.56,15.56,0,0,0,9.59-3.36c32.27-24.45,23.28-182.58,22.88-189.3A2,2,0,0,0,1603.61,1650Z"/></g></g><g class="cls-11"><path d="M1557.57,2583.63l1.33,0s-.1-50-.1-123.21Z"/></g><g class="cls-11"><path d="M1602.67,2579.85l85.08-4.2-121.31-677.16C1575.89,1985.42,1602.67,2579.85,1602.67,2579.85Z"/></g><path class="cls-12" d="M1767.94,1445.35s-64.58-216.47-277-186.09c0,0-94.46,14.81-138,58.29s-46.81,77.48-35,161.27,28.72,152.44,60.08,166.23l-2.53,49.31,332.7-.26-6.47-149.47s42.2,32.13,101.53,31.39c78.68-1,157.64-56.23,157.64-56.23L1893,1438Z"/><g class="cls-13"><path class="cls-7" d="M1584.13,1243.61c-16-19.3-37.2-36.16-62.1-39.24-11.06-1.38-22.29.05-33.24,2.14a272.45,272.45,0,0,0-65.23,21.3l-6.68,19.51c7.45,31.92,33.36,56.52,61.62,73.11,23,13.5,49.87,23.18,76.1,18.41s50.35-27.86,48.85-54.48C1602.58,1269.09,1593.9,1255.38,1584.13,1243.61Z"/><g class="cls-8"><path d="M1598.2,1522.22C1476.11,1694.36,1378,1645.05,1378,1645.05l-47.19-10.14,38.67,132.57,358.19-28.72-26-194.13S1682.16,1545.42,1598.2,1522.22Z"/></g></g><path class="cls-14" d="M1579.51,1041.13s13.19-36.47-42.92-32c-60.45,4.82-67.14,47.9-67.14,47.9-115.45,37.6-26.8,122.16-26.8,122.16s165.64-68.67,175.29-71.6,28-21.58,12.61-48.48S1579.51,1041.13,1579.51,1041.13Z"/><g class="cls-15"><path class="cls-16" d="M1637.4,1099.18c-5.24-2.93-11.16-4.59-16.14-7.94-12.16-8.19-17.55-25.57-31.61-29.72-9.54-2.82-19.49,1.65-28.9,4.88-2.75.94-5.84,1.78-8.51.61-4.62-2-5-8.32-4.68-13.36l-11.79,2c3.08-2.22,6.3-4.59,7.92-8s1-8.27-2.38-10.05a9.68,9.68,0,0,0-5.2-.76c-10.78.68-20.55,6.45-29.34,12.73-5.33,3.8-10.61,8-13.94,13.62s-4.38,13-1.07,18.69l3.87,4.09a59,59,0,0,0-52.79,16.89c-6.3,6.6-11.11,15.06-11.54,24.18s4.24,18.76,12.57,22.48c-12.58,9.78-11.55,30.52-1.42,42.82,2.68,3.26,6,6.18,10,7.42,6.47,2,13.35-.66,19.6-3.26l157.72-65.58c8.3-3.45,18-9,17.82-17.94C1647.51,1107,1642.65,1102.1,1637.4,1099.18Z"/></g><path class="cls-5" d="M1613.86,1107.35s-24.28,9.13-32.31-10.14-1.82-8.42-17.58,9.51-32.44,7.78-32.44,7.78l-2.33-14.63s-6.4,19.35-23.2,25.16c-16.52,5.71-31.33,28.6-31.64,28.64a31.66,31.66,0,0,0-4.07-.61c-16.77-1.46-31.4,9.23-32.66,23.89s11.29,27.69,28.06,29.15c7.22.64,10.4,2.11,15.93-1.13l-4.38,75.28s41,26.08,62.52,26.94,45.87-27.68,33.39-35.13c-3.45-2.07-6.28-6.38-8.57-11.55-3-6.86-5.12-15.27-6.41-21.83,4.7-.32,9.3-1.76,14.13-2.37,40-5,59-54.16,49.94-98.57C1619.41,1123.73,1618.68,1116.25,1613.86,1107.35Z"/><g class="cls-17"><path class="cls-18" d="M1553.25,1024c-32.6-.51-64.25,14-88.72,35.6-10.72,9.44-20.36,20.39-26.54,33.27l36.58,60.28L1512,1130c1.84-1.14,3.77-2.32,5.93-2.5,2.58-.23,5,1,7.48,1.87a29.51,29.51,0,0,0,27-4c5.29-3.9,9.56-9.77,16-11.27,6.68-1.56,13.29,2.13,19.79,4.33a47,47,0,0,0,33.43-1.38c5.87-2.54,11.33-6.45,14.6-11.94,6.14-10.33,3.25-23.74-2.3-34.39C1618.82,1041.77,1585.84,1024.55,1553.25,1024Z"/><path class="cls-18" d="M1572.83,1259c2.36,11.64-6.63,23.25-17.66,27.66s-23.43,3.27-35.15,1.35a299.77,299.77,0,0,1-57.69-15.44l-2.93,35.6a106,106,0,0,0,66.07,21.87c18.59-.33,38.12-6.41,49.76-20.91S1587.29,1270.63,1572.83,1259Z"/></g><path class="cls-19" d="M1546.27,1123.46a25.26,25.26,0,0,0-3.4-1.26,28.34,28.34,0,0,0-3.45-.8,24.68,24.68,0,0,0-7.24-.17,19,19,0,0,0-7.13,2.35,21.61,21.61,0,0,0-5.83,4.84l-.13.15a3,3,0,1,0,4.74,3.82l.18-.23a15.75,15.75,0,0,1,3.91-3.82,13.73,13.73,0,0,1,5.09-2.14,20.1,20.1,0,0,1,5.82-.32,23.16,23.16,0,0,1,3,.45,20.68,20.68,0,0,1,2.83.78l.14.05a2,2,0,0,0,1.5-3.7Z"/><path class="cls-19" d="M1613.67,1115.79a28.45,28.45,0,0,0-3.12-1.69,24.9,24.9,0,0,0-6.94-2.07,19.22,19.22,0,0,0-7.5.39,21.7,21.7,0,0,0-6.9,3.14l-.16.11a3,3,0,0,0,3.56,4.93l.24-.17a15.75,15.75,0,0,1,4.78-2.66,13.72,13.72,0,0,1,5.47-.72,19.86,19.86,0,0,1,5.7,1.22,24,24,0,0,1,2.75,1.22,20.71,20.71,0,0,1,2.52,1.5l.12.08a2,2,0,0,0,2.42-3.17A23.67,23.67,0,0,0,1613.67,1115.79Z"/><path class="cls-18" d="M1587,1143.69c-9-4.2-6.2,22.85-4,28.17s5,11.66,16,6.05C1613.91,1170.3,1587,1143.69,1587,1143.69Z"/><path class="cls-20" d="M1604.45,1130.07a8.78,8.78,0,1,0,9.63,7.84A8.78,8.78,0,0,0,1604.45,1130.07Z"/><path class="cls-20" d="M1546,1138.81a8.78,8.78,0,1,0,9.63,7.84A8.78,8.78,0,0,0,1546,1138.81Z"/><path class="cls-7" d="M1589,1194.86s-16.51,6.12-27-1.09a3.22,3.22,0,0,0-5,2.23c-2.72,21,16.11,19.72,24.81,16.81C1591.28,1209.65,1593.32,1197.48,1589,1194.86Z"/><circle class="cls-21" cx="1522.91" cy="1176.93" r="20.39" transform="translate(-106.39 2201.53) rotate(-69.86)"/><path class="cls-18" d="M1519.81,1224.37c-5.8-6.33-13.65,52.55,44.77,36.14-3-6.86-4.46-16.6-5.75-23.16C1547.86,1234.76,1525.87,1231,1519.81,1224.37Z"/><path class="cls-18" d="M1473.43,1174.44a12.82,12.82,0,0,0-7.62-5.06,12.12,12.12,0,0,0-8.57,1.2,21.48,21.48,0,0,1,7.6,1.78,13.5,13.5,0,0,1,5.37,4.46,27,27,0,0,1,3.36,6.63c.9,2.44,1.61,5,2.54,7.74a22,22,0,0,0,.51-8.48A18,18,0,0,0,1473.43,1174.44Z"/><path class="cls-18" d="M1467.89,1175.66l-.63,0-.65.1a6.76,6.76,0,0,0-1.29.32c-.43.18-.84.4-1.26.61a11.8,11.8,0,0,0-1.1.91,6.77,6.77,0,0,0-.89,1.11,7.84,7.84,0,0,0-1.1,5.07,7.7,7.7,0,0,0,1.93,4.38c.48-1.57.82-2.94,1.2-4.18a12.91,12.91,0,0,1,1.34-3.11,6.31,6.31,0,0,1,2.19-2.13l.37-.27.43-.21c.28-.14.58-.31.89-.49a19.53,19.53,0,0,0,2.06-1,8.69,8.69,0,0,0-2.25-.93A12.38,12.38,0,0,0,1467.89,1175.66Z"/><path class="cls-5" d="M1976,1450.41s36.45-54.13,14.36-47.83-66.29,47.83-66.29,47.83l80.65,95s38.67-32,29.83-56.49S1976,1450.41,1976,1450.41Z"/><path class="cls-22" d="M1617.34,1873.54s103.12,11.78,110.48,13.26,57.45-411,57.45-411l-148.78-41.24Z"/><path class="cls-23" d="M2019.42,1904.47c0-84-2.89-431.61-10.25-442.66s-39.77-34.6-39.77-34.6S1856,1442,1794.12,1439s-151.73-22.1-157.63-4.42c0,0,41.25,42.55,53,97.88s-10.3,355.83,0,410.31c6.58,34.85,17.38,68.5,46.29,90.53,10,7.69,22.27,13.94,37.27,18.36a61.05,61.05,0,0,1,41.81,42.58,59.59,59.59,0,0,1,1.85,10.32c9.63,107.62-3.49,362.63-3.49,362.63s69.25,14.87,101.64,8.9,207.7-7.44,212.12-7.44,25-380-14.72-431.59C2075.19,1989,2019.42,1988.48,2019.42,1904.47Z"/><g class="cls-24"><rect class="cls-7" x="1739.61" y="1490.18" width="106.06" height="9.94" rx="2.25"/></g><g class="cls-24"><rect class="cls-7" x="1866.1" y="1490.18" width="106.06" height="9.94" rx="2.25"/></g><g class="cls-24"><rect class="cls-7" x="1807.55" y="1598.1" width="106.06" height="9.94" rx="2.25"/></g><rect class="cls-25" x="1739.61" y="1545.42" width="232.55" height="15.47" rx="2.25"/><rect class="cls-25" x="1739.61" y="1645.25" width="232.55" height="15.47" rx="2.25"/><g class="cls-24"><rect class="cls-7" x="1739.61" y="1745.09" width="232.55" height="15.47" rx="2.25"/></g><rect class="cls-25" x="1744.3" y="1795" width="232.55" height="15.47" rx="2.25"/><g class="cls-24"><rect class="cls-7" x="1739.61" y="1695.17" width="232.55" height="15.47" rx="2.25"/></g><g class="cls-24"><rect class="cls-7" x="1739.61" y="1844.92" width="232.55" height="15.47" rx="2.25"/></g><rect class="cls-25" x="1748.44" y="1894.83" width="213.22" height="15.47" rx="2.25"/><g class="cls-24"><rect class="cls-7" x="1779.78" y="1944.6" width="213.22" height="15.47" rx="2.25"/></g><g class="cls-24"><rect class="cls-7" x="1807" y="1998.38" width="91.7" height="15.47" rx="2.25"/></g><rect class="cls-25" x="1931.01" y="1998.38" width="91.7" height="15.47" rx="2.25"/><g class="cls-11"><path d="M1865.55,2048.09c-61.38-1.74-103.54-8.64-129.74-14.8,10,7.69,22.27,13.94,37.27,18.36a61.05,61.05,0,0,1,41.81,42.58c14.09-9.63,30-18.36,46.24-22.94,43.24-12.22,177.45-25.89,210.33-29.12A1853.73,1853.73,0,0,1,1865.55,2048.09Z"/></g><rect class="cls-25" x="1863.34" y="2102.23" width="216.54" height="12.15" rx="2.75"/><g class="cls-24"><rect class="cls-7" x="1868.59" y="2144.09" width="216.54" height="12.15" rx="2.75"/></g><rect class="cls-25" x="1868.59" y="2222.65" width="216.54" height="12.15" rx="2.75"/><rect class="cls-25" x="1884.74" y="2335.33" width="216.54" height="12.15" rx="2.75"/><rect class="cls-25" x="1868.59" y="2278.99" width="108.27" height="12.15" rx="2.75"/><g class="cls-24"><rect class="cls-7" x="1997.85" y="2278.99" width="108.27" height="12.15" rx="2.75"/></g><g class="cls-24"><rect class="cls-7" x="1884.74" y="2400.52" width="108.27" height="12.15" rx="2.75"/></g><path class="cls-5" d="M1727.24,1461.49c-4.25-3.74-37.77,17.21-41.68,19.69a.06.06,0,0,1-.08-.1c4.4-4.43,42.67-43.39,35.43-48.76-6.22-4.61-35.76,18.85-46.83,28a.61.61,0,0,1-.87-.84c8.51-11.29,30-40.65,23-41.15-8.6-.63-46.06,32.62-46.06,32.62l-13.66-16.36s-7.73,14-13.77,23.25-14.34,35.15-14.34,35.15l37.2,66.58s86.68-55.61,80.24-59.71-24.78-.68-24.78-.68S1731.83,1465.53,1727.24,1461.49Z"/><g class="cls-26"><path class="cls-18" d="M1699.43,1405.68c-19.81-8.35-44.25-4.34-60.36,9.9l-12.22,12.74c4.75,3.11,5.81,9.49,6.63,15.1s2.44,12,7.58,14.46c6.25,2.95,13.23-1.86,18.46-6.39l43-37.24a6.08,6.08,0,0,0,1.68-1.93C1705.48,1409.53,1702.25,1406.86,1699.43,1405.68Z"/><path class="cls-18" d="M1722.41,1424.28c-6-1.47-12.18,1.83-17.14,5.57l-23.61,21.69c-2.86,6-7,5.94-11.1,13.23,13.26-7.73,28.18-23.51,43.45-28.72,4.68-1.6,7.66-.23,10.64-4.17,1.12-1.47,2.06-3.41,1.34-5.1A4.94,4.94,0,0,0,1722.41,1424.28Z"/><path class="cls-18" d="M1727.24,1452.44a30.66,30.66,0,0,0-13.93,5.48L1692,1474.63a113.7,113.7,0,0,0-12.37,13.58c9.69-4.3,16.39-9.75,26.08-14,3.59-1.59,9.48-4.18,12.7-6.44,4.81-3.38,9.33-6.09,11.48-11.56.42-1.05.72-2.38-.06-3.2A3,3,0,0,0,1727.24,1452.44Z"/><path class="cls-18" d="M1730.52,1492.34a40,40,0,0,0-11.92-2.58l-10.29,2.88a147.13,147.13,0,0,0-17.82,16c12.33-6.69,26.25-9.74,39.92-12.89.83-.19,1.8-.52,2-1.35C1732.59,1493.42,1731.47,1492.7,1730.52,1492.34Z"/><path class="cls-18" d="M1590.43,1550.86c2.7,10.38,13.38,17.09,24,18.5s21.31-1.41,31.67-4.21l26.76-7.21-71.55-80.31Z"/></g><path class="cls-12" d="M1476.8,1533.37l-53.67-130.79-33.84,247.12s82.52,54.07,260.86-81c-19.81-40.52-47.38-85-47.38-85Z"/><polygon class="cls-27" points="1478.08 1532.84 1477.55 1531.58 1476.29 1532.08 1478.08 1532.84"/><path class="cls-27" d="M1601.17,1484.74l.81,1.34,1.48-.58Z"/><path class="cls-27" d="M1640.79,1546.13c-3.81-7.18-7.66-14.33-11.66-21.4q-12-21.23-24.76-42l-.83-1.34-1.46.58-62.93,25-31.45,12.53-30.15,12.11.53,1.26-1.79-.76,1.26-.5-13.11-31.35-13.69-32.58L1437,1435.1l-13.84-32.52,13,32.87,13.06,32.84,13.15,32.81,13.2,32.79.5,1.26,1.28-.5,31.58-12.19,31.54-12.29,61.56-24.09-.81-1.34,2.29.76-1.48.58q12.21,20.06,23.68,40.6c7.67,13.65,15.11,27.44,22.07,41.45l1.27-.94-.56,2.34-.71-1.4a683.77,683.77,0,0,1-57.41,39.2l-3.79,2.32-3.85,2.22-7.71,4.42c-2.55,1.52-5.2,2.84-7.8,4.26l-7.82,4.21c-10.58,5.32-21.23,10.53-32.23,14.92-5.44,2.34-11,4.27-16.59,6.34-5.63,1.83-11.23,3.77-17,5.28a236.7,236.7,0,0,1-34.76,7.09c-2.94.3-5.87.72-8.83.86l-4.43.3c-1.48.08-3,.08-4.44.13a144,144,0,0,1-17.74-.64,115.43,115.43,0,0,1-17.5-3c-1.44-.34-2.85-.8-4.28-1.19s-2.83-.9-4.21-1.43a50.94,50.94,0,0,1-8.1-3.68,50.66,50.66,0,0,0,8,3.92c1.38.57,2.79,1.05,4.19,1.56s2.83.94,4.27,1.32a111,111,0,0,0,17.53,3.47,145.94,145.94,0,0,0,17.86,1c1.49,0,3,0,4.47,0l4.47-.21c3-.08,6-.43,8.93-.68a219.9,219.9,0,0,0,35.17-6.57c5.8-1.44,11.46-3.32,17.16-5.09,5.62-2,11.3-3.88,16.81-6.17,11.15-4.28,21.94-9.38,32.67-14.6,5.27-2.79,10.62-5.44,15.81-8.38l7.78-4.42,3.88-2.21,3.83-2.32a692.2,692.2,0,0,0,59.18-40.11l1.25-.93-.7-1.42Q1646.48,1556.91,1640.79,1546.13Z"/><path class="cls-27" d="M1649,1567.19l-1.27.94.71,1.4Z"/><rect class="cls-23" x="2079.88" y="360" width="1066.07" height="1426.23"/><polygon class="cls-28" points="2181.51 1428.44 3006.41 1427.17 3043.24 483.74 2161.63 468.27 2181.51 1428.44"/><path class="cls-29" d="M2871.89,904.41c-16.78-11.94-37.09-20.9-47.25-38.81-13.44-23.69-4.06-53.09,3-79.4,5.9-21.94,10-44.46,10.53-67.17.55-22.09-2.47-44.92-13.58-64-19.71-33.87-65.61-49.67-102-35.12l-8.09-.1c-15.8-24.47-51-25.2-79.77-20.43a462.8,462.8,0,0,0-99.06,28c-15.19,6.2-30.51,13.54-41.38,25.83-10.38,11.73-15.83,27-19.08,42.34-7.34,34.56-4.51,70.57,2.4,105.22,5.73,28.71,14,59.81,1.1,86.11-7.64,15.63-21.7,27-32.64,40.5s-19,32.19-11.92,48.07c5.22,11.67,17.43,18.94,23.1,30.4,6.84,13.83,2.7,30.53-3.48,44.67s-14.42,27.91-15.69,43.29c-2.59,31.34,23.77,57,49.32,75.32,13.92,10,28.52,19.44,44.82,24.7,24.06,7.75,50,5.83,75.24,3.82L2829,1180c5.76-.46,11.94-1.09,16.32-4.86,3.55-3.07,5.28-7.72,6.55-12.24,6.15-21.92,4.74-45.67,12.85-66.94,11.1-29.09,38.51-49.69,49.38-78.88C2929.17,976.69,2907,929.44,2871.89,904.41Z"/><g class="cls-30"><path class="cls-31" d="M2926.25,1119.21c-5.78-3.34-12.84-3.3-19.25-5.14s-13-7.18-12-13.78c.57-3.79,3.47-6.72,6.1-9.5a132.66,132.66,0,0,0,30-50.65c2.3-7.16,3.88-15.37.13-21.89-6.42-11.17-22.6-9.71-35.35-7.86a223.06,223.06,0,0,1-38.22,2.24c-5.49-.15-11.51-.73-15.37-4.63-5.5-5.55-3.86-15,.26-21.68s10.24-12,13.59-19c7.52-15.82-1.59-35.27-15.28-46.2s-31-15.9-47.08-22.91-32.2-17.51-38.09-34c-8.66-24.25,7.77-49.36,20.23-71.89,15.26-27.62,25.58-59.59,19.92-90.63s-30.85-59.9-62.34-61.86A77.06,77.06,0,0,1,2748,684.38c0,3-.28,6.3-2.35,8.47-4.19,4.4-12,.69-14.94-4.62s-3.46-11.77-6.83-16.82-12.05-7.39-15.05-2.12c-4.25,7.45,8.56,13.58,10.45,21.94,1.73,7.61-6,13.73-12.71,17.7l-35,20.64a44.81,44.81,0,0,0-28.88-16.22l62.85-68-3,3c-9.77-20.26-36.24-26.77-58.46-23.28s-42.66,14.29-64.61,19.2c-13.53,3-27.77,3.86-40.33,9.74s-23.33,19-20.73,32.57c2.79,14.6,19.34,23.76,21.51,38.46,2.39,16.17-13.09,28.52-22.92,41.58a69,69,0,0,0-13.3,48.23c2.39,22.31,15.72,43.48,12.42,65.68-2.89,19.45-18.08,34.84-34.46,45.72s-34.77,18.82-49.84,31.45S2405,989.65,2408.68,1009c1.8,9.53,7.09,18,10.7,27a80.31,80.31,0,0,1,2.22,53c-5.19,16.9-16.11,34.2-10.24,50.88,3.06,8.72,10.24,15.24,17.15,21.37q18.09,16.08,36.2,32.14c9.24,8.21,18.66,16.53,29.87,21.74,13.37,6.2,28.43,7.58,43.16,8,94.71,2.46,187.11-32.31,281.84-32.82,20-.1,40.24,1.31,60-2.17s39.48-12.68,50.48-29.42C2938.15,1146.27,2939.06,1126.62,2926.25,1119.21Z"/></g><path class="cls-9" d="M2021.46,1220.87l36.43-.4a32.85,32.85,0,0,0,31.43-24.61l38.76-149.12-60.73,1.49Z"/><g class="cls-8"><polygon points="2063.26 1063.63 2118.72 1082.73 2128.08 1046.74 2067.35 1048.23 2063.26 1063.63"/></g><path class="cls-9" d="M2275.46,964.12l-72.69-43.87-301-181.66-84.69,319.34,351.48-8.61,84.88-2.08a27.87,27.87,0,0,0,25-16.76,145.6,145.6,0,0,0,10.45-39.4A27.86,27.86,0,0,0,2275.46,964.12Z"/><g class="cls-32"><polygon class="cls-33" points="1805.23 815.74 2288.91 991.08 2305.25 886.56 1891.33 656.82 1805.23 815.74"/><polygon class="cls-33" points="1755.81 1130.03 2269.9 1114.42 2289.09 1025.07 1787.51 982.69 1755.81 1130.03"/></g><path class="cls-7" d="M2275.46,964.12,2235,939.69a223,223,0,0,1-28.83,108.7l47.27-1.15a27.87,27.87,0,0,0,25-16.76,145.6,145.6,0,0,0,10.45-39.4A27.86,27.86,0,0,0,2275.46,964.12Z"/><ellipse class="cls-7" cx="1859.41" cy="898.26" rx="165.19" ry="80.17" transform="translate(514.51 2465.27) rotate(-75.15)"/><ellipse class="cls-34" cx="1859.41" cy="898.26" rx="144.1" ry="66.49" transform="translate(514.51 2465.27) rotate(-75.15)"/><path class="cls-7" d="M1881.47,904.11a38.19,38.19,0,0,0,27.12,46.7c1,.27,2,.46,3.06.65a307.92,307.92,0,0,0,19.5-73.52c-1-.34-2-.68-3-1A38.19,38.19,0,0,0,1881.47,904.11Z"/><path class="cls-18" d="M2070.41,1107.24l-42.37-4a3.22,3.22,0,0,0-3.5,2.89l-2.44,26.19a3.22,3.22,0,0,0,2.9,3.49l42.38,4a3.23,3.23,0,0,0,3.49-2.9l2.44-26.18A3.21,3.21,0,0,0,2070.41,1107.24Z"/><rect class="cls-18" x="2030.78" y="1066.83" width="32.71" height="41.53" rx="3.21" transform="translate(774.22 3024.94) rotate(-84.67)"/><path class="cls-18" d="M2052.08,1135.32l-38.54-3.59a3.21,3.21,0,0,0-3.49,2.89l-2.45,26.19a3.21,3.21,0,0,0,2.9,3.49l38.55,3.59a3.21,3.21,0,0,0,3.49-2.89l2.44-26.19A3.23,3.23,0,0,0,2052.08,1135.32Z"/><rect class="cls-18" x="2002.38" y="1164.08" width="32.71" height="32.71" rx="3.21" transform="translate(656.01 3080.88) rotate(-84.67)"/><rect class="cls-5" x="2023.07" y="1093.28" width="32.71" height="48.98" rx="3.21" transform="matrix(0.09, -1, 1, 0.09, 737.19, 3044.64)"/><path class="cls-5" d="M2057.86,1069.15l-35-3.26a3.21,3.21,0,0,0-3.49,2.9L2017,1095a3.23,3.23,0,0,0,2.89,3.49l35,3.26a3.21,3.21,0,0,0,3.49-2.9l2.44-26.19A3.22,3.22,0,0,0,2057.86,1069.15Z"/><rect class="cls-5" x="2006.66" y="1123.47" width="32.71" height="45.13" rx="3.21" transform="translate(694.14 3053.93) rotate(-84.67)"/><path class="cls-5" d="M2025.07,1161.59l-26.18-2.44a3.2,3.2,0,0,0-3.49,2.89l-2.45,26.19a3.23,3.23,0,0,0,2.9,3.49l26.19,2.44a3.23,3.23,0,0,0,3.49-2.9l2.44-26.18A3.21,3.21,0,0,0,2025.07,1161.59Z"/><path class="cls-5" d="M2163.72,1171.37s-9.55-62.55-31.38-85.34-81.68-35.37-84.14-26.54,45.81,45.94,45.81,45.94-21.61,53.47,1,80.87l-22.56,41.7,70.6,68s59.92-43.16,56.09-100.72Z"/><g class="cls-35"><path class="cls-18" d="M2102.28,1102c-2.43-3.06-6.09-4.81-9.56-6.6a148.71,148.71,0,0,1-53.18-46.33c-4-5.65-10.77-12.39-16.53-8.56-2.39,1.58-3.43,4.51-4.32,7.22-3.87,11.82-7.79,24.1-6.3,36.44,1.92,15.84,12.35,29.1,19.66,43.29s11.07,32.91.74,45.06l29.44,58.3c19.83-2.14,37.27-18.49,40.69-38.15,3.46-19.92-6.25-40.56-2-60.32C2103.2,1122.06,2108.84,1110.26,2102.28,1102Z"/></g><path class="cls-6" d="M2929.81,1048.39c-24.21-6.72-108.61-38.88-144.12-52.53a59.16,59.16,0,0,0-32.76-2.81l-121.78,24.16-48.14,7.13s-105.42,20.91-136.35,75.63-82.49,234.44-82.49,234.44L2171,1176.32s-36.08,74.56-64.36,84.66c92.63,122,140.94,166.19,140.94,166.19h758.79l8.84-268.05S2960.75,1057,2929.81,1048.39Z"/><g class="cls-36"><g class="cls-8"><path d="M2533.57,1209.24c-102.1,93.13-15.55,190.35-15.55,190.35l8.18,100.54,23.72-22.84L2535,1384.12S2458.81,1323.36,2533.57,1209.24Z"/></g><g class="cls-8"><polygon points="2923.59 1396.88 2794.79 1396.88 2774.72 1570.79 2972.79 1443.28 2878.43 1199.47 2923.59 1396.88"/></g></g><g class="cls-36"><g class="cls-8"><g class="cls-11"><polygon class="cls-7" points="2505.9 1131.9 2482.88 1107.43 2477.46 1140.59 2447.07 1154.93 2476.94 1170.33 2481.18 1203.66 2505.06 1180.02 2538.07 1186.28 2522.96 1156.27 2539.11 1126.81 2505.9 1131.9"/></g><g class="cls-11"><polygon class="cls-7" points="2199.51 1298.28 2176.49 1273.81 2171.07 1306.97 2140.68 1321.31 2170.55 1336.71 2174.79 1370.04 2198.66 1346.4 2231.68 1352.66 2216.57 1322.65 2232.72 1293.18 2199.51 1298.28"/></g><g class="cls-11"><polygon class="cls-7" points="2704.29 1045.94 2681.26 1021.47 2675.84 1054.63 2645.45 1068.97 2675.32 1084.37 2679.57 1117.7 2703.44 1094.06 2736.45 1100.32 2721.34 1070.31 2737.5 1040.85 2704.29 1045.94"/></g><g class="cls-11"><polygon class="cls-7" points="2444.28 1346.4 2421.25 1321.93 2415.84 1355.09 2385.45 1369.43 2415.31 1384.83 2419.56 1418.16 2443.43 1394.51 2476.45 1400.77 2461.34 1370.76 2477.49 1341.3 2444.28 1346.4"/></g><g class="cls-11"><polygon class="cls-7" points="2880.87 1113.1 2859.06 1138.66 2825.64 1135.18 2843.2 1163.82 2829.57 1194.53 2862.24 1186.68 2887.23 1209.14 2889.85 1175.64 2918.93 1158.81 2887.89 1145.96 2880.87 1113.1"/></g><g class="cls-11"><polygon class="cls-7" points="2672.85 1252.75 2644.33 1270.51 2613.53 1257.08 2621.61 1289.7 2599.32 1314.84 2632.83 1317.24 2649.86 1346.21 2662.49 1315.08 2695.3 1307.83 2669.6 1286.19 2672.85 1252.75"/></g><g class="cls-11"><polygon class="cls-7" points="2897.83 1346.21 2869.3 1363.97 2838.5 1350.54 2846.58 1383.16 2824.29 1408.3 2857.81 1410.7 2874.83 1439.67 2887.47 1408.53 2920.28 1401.29 2894.57 1379.65 2897.83 1346.21"/></g><g class="cls-11"><polygon class="cls-7" points="3050.67 1196.39 3022.14 1214.16 2991.34 1200.73 2999.42 1233.34 2977.13 1258.49 3010.64 1260.88 3027.67 1289.85 3040.31 1258.72 3073.12 1251.48 3047.41 1229.84 3050.67 1196.39"/></g></g></g><path class="cls-7" d="M2547.63,881.53a14.56,14.56,0,1,0,18.67,8.67A14.56,14.56,0,0,0,2547.63,881.53Z"/><path class="cls-37" d="M2568.12,931.32c-2.76-13-11.14-19.69-18.67-14.93-5.22,3.29-8.68,11.18-9.41,20a40.86,40.86,0,0,0,.73,12.1c2.76,13,11.13,19.69,18.67,14.94,6.58-4.13,10.38-15.6,9.41-27.09A39,39,0,0,0,2568.12,931.32Z"/><path class="cls-7" d="M2549.45,916.39c-5.22,3.29-8.68,11.18-9.41,20a37.38,37.38,0,0,0,.73,5.06c2.76,13,11.13,19.68,18.67,14.91,5.21-3.27,8.68-11.16,9.41-20a39,39,0,0,0-.73-5.06C2565.36,918.33,2557,911.63,2549.45,916.39Z"/><path class="cls-5" d="M2730.94,883.13c15.72.74,32.82-6.75,45-21.36,19-22.72,18.87-54-.18-69.91-17.22-14.37-44.05-11.23-63,6.29-8.22,3.27-24.78,7.89-49.53,5.64a57.63,57.63,0,0,0,24.3,6.38s-40.09,10.86-62,2.77-50.09-30.83-50.66-58.17c-.73-35.35-22.27-76.6-56.79-50.82,0,0-18.33,24.31-19.8,49.35s6.54,77.36,9.9,94.29,17.35,118.56,129.3,86.16c8.84,42-4,58.92-12,69.23s-42.46,23.57-42.46,23.57,7.27,22.09,5.8,44.19-13.26,36.09,0,38.3,64.07-21.36,82.49-19.15,99.43,11,108.27,7.36-7.37-34.61-5.16-56,7.82-47.14,7.82-47.14S2752,991.19,2733.35,975s-16.12-72.65-4.1-88.62A13.16,13.16,0,0,0,2730.94,883.13Z"/><g class="cls-38"><path class="cls-18" d="M2696.14,725.05c-22-13.9-47.41-23.36-65.34-42.24-8-8.46-14.5-18.75-24.44-24.86a46.58,46.58,0,0,0-21.27-6.34,61.19,61.19,0,0,0-35.15,8.42l-39.14,41.79a23,23,0,0,1,22.8-.45c7.7,4.3,12.19,12.65,15.27,20.92,9.64,25.81,10.36,56.19,28.82,76.64,10.21,11.31,24.84,18,39.86,20.56s30.46,1.19,45.42-1.69c16.07-3.1,32.31-8.22,44.65-19s20-28.15,15.32-43.84C2719.06,741.85,2707.72,732.36,2696.14,725.05Z"/><path class="cls-18" d="M2613.77,963.81c-4.32,5.67-.5,14.61,5.9,17.75s14,2,20.88-.07c33.35-10.07,59.12-43.8,62.35-78.49-26.22,14.43-53.38,31.38-83.18,34.25Z"/><path class="cls-18" d="M2798.4,1081.72c-19.79,11.14-43.66,12.24-66.29,10.32s-45.1-6.58-67.79-6a165.79,165.79,0,0,0-44.27,7.6c-7.56,2.34-15.16,5.18-23.07,5.12-1.68,0-3.51-.22-4.69-1.41-1.86-1.87-1.15-5-.43-7.51a80.5,80.5,0,0,0-13.46-69.71l-17.75,52.27c8.35,4.08,11.82,14.48,11.2,23.76s-4.37,18-6.75,27c-.91,3.46-1.62,7.19-.46,10.58,1.73,5.06,7.27,8,12.6,8.4s10.59-1.14,15.77-2.45c53.37-13.47,110.71-1.06,164-14.65,17.11-4.36,34-11.69,46.12-24.54,4.08-4.33,7.7-9.65,7.78-15.6a6.5,6.5,0,0,0-1.06-4.06C2807.35,1077.51,2802.08,1079.65,2798.4,1081.72Z"/></g><path class="cls-19" d="M2551.18,773.31a27.66,27.66,0,0,0-9.68-2.21,25.87,25.87,0,0,0-9.75,1.53,32.14,32.14,0,0,0-8.44,4.57,40.81,40.81,0,0,0-3.62,3,33.64,33.64,0,0,0-3.24,3.54,2,2,0,0,0,3.06,2.56l.07-.08a32.5,32.5,0,0,1,3-2.86,37,37,0,0,1,3.35-2.51,27.65,27.65,0,0,1,7.41-3.48,20.73,20.73,0,0,1,7.84-.78,22,22,0,0,1,7.51,2.2l0,0,.14.06a3,3,0,1,0,2.34-5.61Z"/><path class="cls-18" d="M2581.66,817.07s-25.88,44.54-3.62,49.23c16.39,3.46,17.79-5.86,18.85-13.65S2591.94,808.35,2581.66,817.07Z"/><path class="cls-20" d="M2547,810.21A11.95,11.95,0,1,0,2558,823,11.94,11.94,0,0,0,2547,810.21Z"/><circle class="cls-20" cx="2643.1" cy="815.73" r="11.95" transform="translate(104.45 1914.21) rotate(-40.55)"/><path class="cls-31" d="M2635,793.26l-5.34,10.53v10.43s18.33,2.33,26.53,1.29c7.61-1-3.32-15.07-3.32-15.07Z"/><path class="cls-21" d="M2666.66,819.85a24.82,24.82,0,1,0,31.83,14.78A24.82,24.82,0,0,0,2666.66,819.85Z"/><path class="cls-37" d="M2739.85,860.06a14.55,14.55,0,0,0-22,16.93,11.7,11.7,0,0,0,.93,2,14.54,14.54,0,1,0,21.06-18.92Z"/><path class="cls-7" d="M2739.85,860.06a14.55,14.55,0,0,0-22,16.93,11.7,11.7,0,0,0,.93,2,14.54,14.54,0,0,0,22-16.93A12,12,0,0,0,2739.85,860.06Z"/><path class="cls-37" d="M2728.36,893.19l-.11.06c-7.49,4.84-11.32,19.16-8.58,32.08s11.14,19.69,18.67,14.94c2.88-1.81,5.22-5,6.85-9a40.68,40.68,0,0,0,1.84-23.16C2744.26,895.13,2735.89,888.43,2728.36,893.19Z"/><path class="cls-7" d="M2728.36,893.19l-.11.06a40.85,40.85,0,0,0-1.82,23.16c2.77,13,11.12,19.68,18.67,14.93l.09-.06a40.68,40.68,0,0,0,1.84-23.16C2744.26,895.13,2735.89,888.43,2728.36,893.19Z"/><path class="cls-7" d="M2619.09,887.15c-11.35,4.65-23.75,4.78-23.75,4.78s.37,16.89,15.53,15.82S2630.43,882.5,2619.09,887.15Z"/><path class="cls-18" d="M2739.85,815.31a22.11,22.11,0,0,0-7.18,3.06,23.8,23.8,0,0,0-5.72,5.33,28.61,28.61,0,0,0-3.88,6.66,35.58,35.58,0,0,0-1.32,3.57c-.36,1.2-.67,2.42-.94,3.64a48.64,48.64,0,0,0-.71,14.77c1.16-4.79,2.22-9.47,3.74-13.94.4-1.11.81-2.21,1.23-3.29s.88-2.16,1.44-3.16a31.28,31.28,0,0,1,3.59-5.78,23.15,23.15,0,0,1,10.63-7.85,32.57,32.57,0,0,1,13.93-1.61A23.59,23.59,0,0,0,2739.85,815.31Z"/><path class="cls-18" d="M2741.32,828.31a11.49,11.49,0,0,0-4-1.83,14.13,14.13,0,0,0-8.09.42,40.09,40.09,0,0,1,7,2.53,11.27,11.27,0,0,1,4.67,4.27,17.62,17.62,0,0,1,2.11,6.35,74.7,74.7,0,0,1,.67,7.54,16.62,16.62,0,0,0,2.46-7.65,14.1,14.1,0,0,0-1.81-8.3A11.37,11.37,0,0,0,2741.32,828.31Z"/><path class="cls-7" d="M2743.31,981.18c-32.79,28.32-60.56,40.15-82.54,35.15-19.91-4.53-27.71-22-27.79-22.14a2,2,0,0,0-3.67,1.59c.34.79,8.62,19.42,30.5,24.43a49.43,49.43,0,0,0,11.1,1.23c21.19,0,46.36-12.48,75-37.24a2,2,0,1,0-2.61-3Z"/><path class="cls-37" d="M2677.45,1019.42a13.83,13.83,0,0,0-3.71.48,15,15,0,0,0,0,29,13.83,13.83,0,0,0,3.71.49,15,15,0,0,0,0-30Z"/><path class="cls-7" d="M2673.74,1019.9a15,15,0,0,0,0,29,15,15,0,0,0,6.87-25.08A15,15,0,0,0,2673.74,1019.9Z"/><path class="cls-5" d="M2731.53,1350.61c-24.14,0-115.79,91.33-106.06,96.49s30.36-7,30.36-7-5.89,20.91,0,21.69,11.05-3.64,11.05-3.64,3.68,8.11,8.84,8.11,19.88-8.84,19.88-8.84,4,6.53,11.32,7.27,66-37.51,66-37.51h114.53l-11.79-27.58S2755.68,1350.61,2731.53,1350.61Z"/><path class="cls-18" d="M2731.66,1412.39a2,2,0,0,0-2.81.31L2694,1456.16a2,2,0,0,0,.31,2.81,2,2,0,0,0,1.25.44,2,2,0,0,0,1.56-.75L2732,1415.2A2,2,0,0,0,2731.66,1412.39Z"/><path class="cls-18" d="M2710.06,1400.81a2,2,0,0,0-2.8.4l-39,52a2,2,0,0,0,.41,2.8,2,2,0,0,0,1.19.4,2,2,0,0,0,1.61-.8l39-52.05A2,2,0,0,0,2710.06,1400.81Z"/><path class="cls-18" d="M2687.8,1398.32l-33.51,40.49a2,2,0,0,0,.27,2.82,2,2,0,0,0,2.81-.27l33.51-40.49a2,2,0,1,0-3.08-2.55Z"/><path class="cls-7" d="M2191.46,388.72a29.83,29.83,0,1,0,29.83,29.83A29.83,29.83,0,0,0,2191.46,388.72Z"/><rect class="cls-7" x="2261.06" y="404.19" width="170.41" height="30.93" rx="7"/><path class="cls-6" d="M2231.7,1467.67c-11.47-.33-21.94,7-25.22,17.5-2.67-10.63-12.7-18.59-24.17-18.91-13.63-.4-27.36,11.61-27.85,28.94-.76,26.26,38.67,57.47,48.51,60.91a5.58,5.58,0,0,0,.58.18,3.52,3.52,0,0,0,.82.14h.14a3.86,3.86,0,0,0,.82-.1,3.92,3.92,0,0,0,.59-.15c10-2.86,51.17-31.77,51.93-58C2258.34,1480.83,2245.33,1468.06,2231.7,1467.67Z"/><path class="cls-6" d="M2564.66,1615.12a10.41,10.41,0,0,1-19.88-.57c-5.48-.15-11,4.68-11.21,11.65-.3,10.57,15.57,23.13,19.53,24.51l.23.08a1.56,1.56,0,0,0,.33,0h.06a2.43,2.43,0,0,0,.33,0l.23-.06c4-1.15,20.6-12.79,20.9-23.36C2575.38,1620.42,2570.15,1615.28,2564.66,1615.12Z"/><path class="cls-6" d="M2635,1615.12a10.4,10.4,0,0,1-19.87-.57c-5.49-.15-11,4.68-11.21,11.65-.3,10.57,15.56,23.13,19.52,24.51l.24.08a1.39,1.39,0,0,0,.32,0h.06a2.26,2.26,0,0,0,.33,0l.24-.06c4-1.15,20.59-12.79,20.9-23.36C2645.76,1620.42,2640.52,1615.28,2635,1615.12Z"/><path class="cls-6" d="M2705.41,1615.12a10.41,10.41,0,0,1-19.88-.57c-5.48-.15-11,4.68-11.21,11.65-.3,10.57,15.57,23.13,19.53,24.51l.23.08a1.56,1.56,0,0,0,.33,0h.06a2.43,2.43,0,0,0,.33,0l.23-.06c4-1.15,20.6-12.79,20.9-23.36C2716.13,1620.42,2710.9,1615.28,2705.41,1615.12Z"/><path class="cls-6" d="M2775.78,1615.12a10.4,10.4,0,0,1-19.87-.57c-5.49-.15-11,4.68-11.21,11.65-.3,10.57,15.56,23.13,19.52,24.51l.24.08a1.39,1.39,0,0,0,.32,0h.06a2.26,2.26,0,0,0,.33,0l.24-.06c4-1.15,20.59-12.79,20.9-23.36C2786.51,1620.42,2781.27,1615.28,2775.78,1615.12Z"/><path class="cls-6" d="M2843.09,1707.8a10.41,10.41,0,0,1-19.88-.57c-5.48-.16-11,4.67-11.21,11.64-.3,10.57,15.57,23.13,19.53,24.51l.23.08.33.06h.06a1.47,1.47,0,0,0,.33,0,1.55,1.55,0,0,0,.23-.06c4-1.15,20.6-12.79,20.9-23.35C2853.81,1713.09,2848.58,1708,2843.09,1707.8Z"/><path class="cls-7" d="M2351.28,1468.66c-31.76,0-57.6,20.14-57.6,44.89s25.84,44.89,57.6,44.89a72.45,72.45,0,0,0,18.3-2.32l24.64,12.89-.47-25.13c9.77-8.29,15.14-19,15.14-30.33C2408.89,1488.8,2383.05,1468.66,2351.28,1468.66Zm39.19,72.75-.76.62.39,20.31-20-10.49-.76.21a68.42,68.42,0,0,1-18,2.38c-29.56,0-53.6-18.34-53.6-40.89s24-40.89,53.6-40.89,53.61,18.35,53.61,40.89C2404.89,1523.91,2399.77,1533.81,2390.47,1541.41Z"/><path class="cls-7" d="M2437.43,1485.64l-3.36.67,29.86,34.59,8.09,46.92,65.71-92.94-4.36.42C2529.84,1475.65,2446.63,1483.81,2437.43,1485.64Zm36.9,72-6.65-38.52-26-30.09c15.87-2.17,71.65-7.73,87.72-9.32Z"/><path class="cls-7" d="M2498.62,1497q-8.48,5.34-16.7,11.06c-5.5,3.81-10.91,7.73-16.12,12,6.09-2.86,12-6,17.77-9.36s11.54-6.74,17.18-10.31,11.22-7.24,16.71-11,10.91-7.73,16.11-12c-6.09,2.86-12,6-17.77,9.36S2504.26,1493.39,2498.62,1497Z"/><path class="cls-7" d="M2596.63,1498.65a16.29,16.29,0,1,0,16.28,16.29A16.29,16.29,0,0,0,2596.63,1498.65Z"/><path class="cls-7" d="M2675.19,1498.65a16.29,16.29,0,1,0,16.29,16.29A16.29,16.29,0,0,0,2675.19,1498.65Z"/><circle class="cls-7" cx="2753.75" cy="1514.94" r="16.29"/><polygon class="cls-7" points="2947.12 1548.74 2977.13 1531.23 3007.14 1549.84 3007.14 1477.29 2947.12 1477.29 2947.12 1548.74"/><path class="cls-25" d="M2203.61,1598.82a33.88,33.88,0,1,0,33.88,33.88A33.88,33.88,0,0,0,2203.61,1598.82Z"/><circle class="cls-25" cx="2203.61" cy="1720.21" r="33.88" transform="translate(-247.09 375.19) rotate(-9.22)"/><rect class="cls-22" x="2269.9" y="1620.18" width="206.22" height="32.81" rx="7.42"/><rect class="cls-22" x="2269.9" y="1703.81" width="206.22" height="32.81" rx="7.42"/><path class="cls-27" d="M2527.75,1703.81h215.4a1.55,1.55,0,0,1,1.55,1.55v3.74a1.54,1.54,0,0,1-1.54,1.54h-215.4a1.55,1.55,0,0,1-1.55-1.55v-3.74A1.55,1.55,0,0,1,2527.75,1703.81Z"/><rect class="cls-27" x="2526.2" y="1733.2" width="263.91" height="6.83" rx="1.55"/><path class="cls-39" d="M2831.5,1443.94c-9.11,0,7.64,21,7.64,21s-28.72-30.54-36.83-29.07,14,29.1,14,29.1-37.57-33.52-47.88-32,44.93,64.07,44.93,64.07l60.4-17.67S2840.61,1443.94,2831.5,1443.94Z"/><path class="cls-5" d="M2898.06,1452c-15.47-9.58-32.41-44.93-42-40.51s3,42.72,10.31,49.34-25.78,22.1-36.83,22.84-67.75-31.67-77.33-25,2.21,17.68,15.47,28,113.42,72.92,113.42,72.92l33.14-63.34S2913.53,1461.61,2898.06,1452Z"/><g class="cls-40"><path class="cls-18" d="M2858.24,1418.91c.36-5.93,2.23-11.7,2.43-17.64a5.8,5.8,0,0,0-.64-3.37c-1.23-1.92-4-2-6.24-1.43a23.47,23.47,0,0,0-16.38,14.4c-3.68,9.83-.54,21.72-6.08,30.65-5.74,9.25-18.22,11.29-29.11,11.33a164.25,164.25,0,0,1-39.13-4.6c-10-2.4-20.72-5.69-30.08-1.53l5.2,16.3c12.77-3.68,26.44,1.64,37.66,8.77s21.35,16.21,33.62,21.31c21.22,8.82,47.51,3.61,63.77-12.62a7.46,7.46,0,0,0,2.47-9.12C2870.61,1453.48,2857.13,1437.48,2858.24,1418.91Z"/></g><polygon class="cls-5" points="3283.67 2657.97 3417.81 2688.18 3433.63 2530.38 3300 2509.59 3283.67 2657.97"/><path class="cls-27" d="M3410.75,2632.7c-63.74,40.41-87.52,4.52-109-17.39-4.56-4.64-12.09-4.64-17.92-1.75l-101.8,42.6-60.38,25.28a52.82,52.82,0,0,0-29.35,48.21l.05,2.59,106.5-1.77,53.51-.91,46-.75,145.81-2.43-21.46-88.18C3421.56,2632.83,3415.39,2629.76,3410.75,2632.7Z"/><polygon class="cls-7" points="3298.33 2728.81 3252.37 2729.56 3198.86 2730.47 3092.36 2732.24 3092.73 2755.48 3202.3 2753.65 3444.54 2749.62 3444.14 2726.38 3298.33 2728.81"/><rect class="cls-7" x="3285.91" y="2671.97" width="4" height="71.67" transform="translate(-860.79 1743.02) rotate(-26.38)"/><rect class="cls-7" x="3243.23" y="2688.46" width="4" height="53.44" transform="translate(-868.52 1724.85) rotate(-26.38)"/><g class="cls-8"><path d="M3182,2656.16l-60.38,25.28a52.82,52.82,0,0,0-29.35,48.21l.05,2.59.37,23.24,109.57-1.83c-1-7.76-2.16-15.47-3.44-23.18A672,672,0,0,0,3182,2656.16Z"/></g><polygon class="cls-5" points="3014.94 2660.98 3147.52 2697.38 3170.66 2540.49 3038.14 2513.52 3014.94 2660.98"/><path class="cls-27" d="M3143.06,2641.63c-65.56,37.42-87.65.47-108.07-22.42-4.34-4.86-11.88-5.2-17.83-2.58L2852,2676.89a52.87,52.87,0,0,0-31.55,46.81l-.07,2.58,351.67,10.5-17.33-89.1C3153.84,2642.27,3147.82,2638.92,3143.06,2641.63Z"/><rect class="cls-7" x="2984.25" y="2567.22" width="23.23" height="351.83" transform="translate(164.61 5655.87) rotate(-88.29)"/><rect class="cls-7" x="3014.85" y="2675.12" width="4" height="71.67" transform="translate(-835.66 1442.58) rotate(-23.72)"/><rect class="cls-7" x="2971.88" y="2689.62" width="4" height="53.44" transform="translate(-841.48 1425.8) rotate(-23.72)"/><path d="M3392.56,1774.14v56.57l92.65-57.69C3455.69,1728.9,3392.56,1774.14,3392.56,1774.14Z"/><path class="cls-41" d="M3090.92,1667.75c-30.26,44.46-105.64,946-105.64,946l200.16,12,40.88-534.56,16.9,542.22,202.45-18.16-67-889.78S3121.18,1623.29,3090.92,1667.75Z"/><g class="cls-42"><g class="cls-8"><path d="M3287.91,1816.46c3.83,93.17-42.68,135.87-42.68,135.87L3146,2554.08l-219.82,22.46,21,99.16,429.76-26.61-82.42-662.86S3303.83,1952.33,3287.91,1816.46Z"/></g></g><path class="cls-34" d="M3402.27,1043.73s7.3-46.42-46.38-73.48-37.68,12.42-37.68,12.42-42.89-17.91-80.84,4.2,3.33,58.55,3.33,58.55l88.6,140.86S3507,1133.48,3402.27,1043.73Z"/><g class="cls-43"><g class="cls-24"><path class="cls-44" d="M3378.2,1045c0-25.17-15.19-49.75-37.71-61q1.78,24.69,4.25,49.33c-14.16-15.61-30.43-32.31-51.44-34a64.16,64.16,0,0,0,14.93,27.15c-16.71-13.05-35.33-26.76-56.53-26.12-14.94.45-31.49,7.77-43.79-.74a361.83,361.83,0,0,1,39,77.1c7.13,19.62,12.56,39.85,20.54,59.13s18.77,37.91,34.7,51.4a29,29,0,0,0,8,5.16c5.75,2.23,12.27,1.2,18.11-.8,16.48-5.64,29.8-18.63,38.22-33.88s12.29-32.65,13.87-50c4.14,1.12,6.09,5.69,8.32,9.35s6.87,7.14,10.46,4.79c1.71-1.11,2.49-3.19,3.06-5.15a69.2,69.2,0,0,0-11.7-61.19C3388.43,1052.9,3378.2,1045,3378.2,1045Z"/></g></g><path class="cls-5" d="M3332.57,1134.47c-.69.54-1.33,1.11-2,1.68,0,0-14.76,10.44-20.28,9.26S3314,1079,3314,1079s-29.08-29.22-34.11-36c-1.57,18.13-23.58,12.71-35.66-10.12,0,0-24.61,24.57-28.54,69.89-10,10.37-6.9,14.86-6.9,14.86s-24.57,80.77,54.26,79.17a339.26,339.26,0,0,1-12.82,42.45l89.95,7.79,1.61-57.8c8.91,1,18.83-1.69,27.17-8.2,15.24-11.89,19.45-32,9.41-44.82S3347.81,1122.58,3332.57,1134.47Z"/><g class="cls-45"><path class="cls-18" d="M3313.64,1012.3c-17.36-14-42.47-17.52-63-8.93l-20.15,23.94c5.23,8.72,10.58,17.6,18.29,24.22s18.32,10.72,28.16,8.17a13.39,13.39,0,0,1,4.78-.81c2.73.3,4.75,2.64,6.33,4.89,15.82,22.4,18.17,51.3,20,78.66q9.45-22.14,18.88-44.28c3.64-8.52,7.29-17.12,9-26.23C3339.85,1050,3331,1026.25,3313.64,1012.3Z"/><path class="cls-18" d="M3296.59,1182.76c-15.41,3.08-30.78,6.86-46.49,7.5s-32.06-2.12-45-11.08l-10.06,35.15c1.55,9.07,10.64,14.83,19.4,17.67,27.48,8.93,60-.9,78-23.54,5-6.26,9-13.66,9.41-21.63a4.51,4.51,0,0,0-.9-3.53C3299.86,1182.24,3298.09,1182.46,3296.59,1182.76Z"/></g><path class="cls-18" d="M3347.07,1146.8a16.83,16.83,0,0,0-7.15,6.1,23.5,23.5,0,0,0-3.46,8.5,42.32,42.32,0,0,0-.46,4.47,36.87,36.87,0,0,0,.33,4.46,43.8,43.8,0,0,0,1.6-4.1c.53-1.33,1.08-2.63,1.54-3.94a43.88,43.88,0,0,1,3.76-7.14,21.56,21.56,0,0,1,5.34-5.6,20.79,20.79,0,0,1,7.56-3.31A12.56,12.56,0,0,0,3347.07,1146.8Z"/><path class="cls-18" d="M3349,1153.9a9.19,9.19,0,0,0-1.48,0c-.48.06-1,.11-1.43.18a8.4,8.4,0,0,0-1.35.38,10.43,10.43,0,0,0-1.29.49,14.59,14.59,0,0,0-2.31,1.42,13,13,0,0,0-1.92,1.93,16.25,16.25,0,0,0,2.65-.11c.84-.07,1.65-.1,2.42-.21s1.53-.1,2.26-.13a17.61,17.61,0,0,1,2.08.06,9.89,9.89,0,0,1,3.76,1,13.93,13.93,0,0,1,3.72,2.91,6.5,6.5,0,0,0-1.72-5.32A8.17,8.17,0,0,0,3349,1153.9Z"/><path class="cls-20" d="M3248.12,1091.27c-3.5-.93-7.52,2.74-9,8.21s.19,10.67,3.69,11.61,7.53-2.74,9-8.21S3251.63,1092.21,3248.12,1091.27Z"/><path class="cls-19" d="M3273,1071.23c-.6-.5-14.91-12-28.44-7.75a3,3,0,0,0,1.81,5.81c10.4-3.25,22.67,6.55,22.8,6.65a3,3,0,0,0,1.91.68,3,3,0,0,0,1.92-5.39Z"/><path class="cls-21" d="M3277.15,1109.67c-8.69-3-18.47,2.63-21.83,12.5s1,20.27,9.65,23.24,18.47-2.64,21.84-12.51S3285.85,1112.63,3277.15,1109.67Z"/><path class="cls-4" d="M3343.17,1212.19c-10-1.92-86.33-13.1-106.92,25.86l-20.59,39,121.19-10.57,21.59-31.85S3353.2,1214.11,3343.17,1212.19Z"/><path class="cls-7" d="M3238.88,1148.59c-18.69,2.51-26.51-5-26.51-5s-5.17,18.19,9,22.1C3238.82,1170.55,3257.57,1146.09,3238.88,1148.59Z"/><path class="cls-29" d="M3426.14,1277s-17.67-24.57-55.24-39-134.65,0-134.65,0-50.95,21-99.56,49.73-99.43,228.69-99.43,228.69l-128.15-50.27-58.29,104.4s122.37,86.18,162.58,95.61,59.21,0,59.21,0,21,131,33.15,164.5c9.37,25.77,113,10.59,207.54-22.69,28.13-9.9,55.46-21.39,79.26-33.89,67.23-35.31,89.86-5.37,92.4-1.53l-80.91-140.83,0,0c.73-1.12,23.44-35.42,47.24-79.5v0c27.09-50.22,55.55-113.1,54.38-154C3503.48,1320.85,3426.14,1277,3426.14,1277Z"/><g class="cls-46"><g class="cls-47"><rect class="cls-7" x="3492" y="1205.36" width="5.31" height="654.53" transform="translate(-25.76 60.12) rotate(-0.98)"/><rect class="cls-7" x="3393.62" y="1207.04" width="5.31" height="654.53" transform="translate(-25.8 58.44) rotate(-0.98)"/><rect class="cls-7" x="3295.23" y="1208.73" width="5.31" height="654.53" transform="translate(-25.84 56.75) rotate(-0.98)"/><rect class="cls-7" x="3196.85" y="1210.42" width="5.31" height="654.53" transform="translate(-25.89 55.06) rotate(-0.98)"/><rect class="cls-7" x="3098.47" y="1212.1" width="5.31" height="654.53" transform="translate(-25.93 53.38) rotate(-0.98)"/><rect class="cls-7" x="3000.08" y="1213.79" width="5.31" height="654.53" transform="translate(-25.97 51.69) rotate(-0.98)"/><rect class="cls-7" x="2901.7" y="1215.48" width="5.31" height="654.53" transform="translate(-26.02 50.01) rotate(-0.98)"/><rect class="cls-7" x="2831.49" y="1257.85" width="754.02" height="5.31" transform="translate(-21.11 55.11) rotate(-0.98)"/><rect class="cls-7" x="2833.18" y="1356.24" width="754.02" height="5.31" transform="translate(-22.79 55.15) rotate(-0.98)"/><rect class="cls-7" x="2834.87" y="1454.62" width="754.02" height="5.31" transform="translate(-24.51 55.27) rotate(-0.98)"/><rect class="cls-7" x="2836.55" y="1553" width="754.02" height="5.31" transform="translate(-26.19 55.31) rotate(-0.98)"/><rect class="cls-7" x="2838.24" y="1651.39" width="754.02" height="5.31" transform="translate(-27.88 55.36) rotate(-0.98)"/><rect class="cls-7" x="2839.93" y="1749.77" width="754.02" height="5.31" transform="translate(-29.61 55.47) rotate(-0.98)"/><rect class="cls-7" x="2841.61" y="1848.16" width="754.02" height="5.31" transform="translate(-31.29 55.51) rotate(-0.98)"/></g></g><g class="cls-8"><path d="M3195.24,1498.81s-44.19,113.79-69.6,139.2-53,28.21-53,28.21,21,131,33.15,164.5c9.37,25.77,113,10.59,207.54-22.69l-118.06-150.14Z"/></g><g class="cls-8"><path d="M3404.07,1631.75c.73-1.12,23.44-35.42,47.24-79.5v0l9.08-134.07-56.34,213.62Z"/></g></g></svg>