<svg xmlns="http://www.w3.org/2000/svg" viewBox="0 0 66 66"><path fill="none" stroke="#37a849" d="M6.39 25.61c0 5.39 4.36 9.74 9.74 9.74h33.72c.22 0 .43-.01.65-.02.28-.02.56-.05.84-.1.11-.01.21-.03.32-.06a9.73 9.73 0 0 0 7.94-9.57c0-5.38-4.37-9.73-9.74-9.73-1.09 0-2.14.18-3.12.51.01-.17.01-.35.01-.52 0-5.39-4.37-9.74-9.74-9.74-2.32 0-4.45.81-6.13 2.18C29.15 4.58 25.37 2 21 2c-6 0-10.88 4.88-10.88 10.88 0 1.58.34 3.07.94 4.42a9.736 9.736 0 0 0-4.67 8.31z"/><path fill="none" stroke="#37a849" d="M6.39 25.61c0 .13 0 .26.01.4h30.99c.22 0 .43-.01.65-.02.28-.02.56-.05.84-.1.11-.01.21-.03.32-.06 4.52-.84 7.94-4.79 7.94-9.56v-.01c0-2.71-1.11-5.17-2.9-6.93l-.02-.02a9.663 9.663 0 0 0-6.82-2.79c-1.09 0-2.14.18-3.12.51.01-.17.01-.35.01-.52-1.25.36-2.41.97-3.4 1.78C29.15 4.58 25.37 2 21 2c-6 0-10.88 4.88-10.88 10.88 0 1.58.34 3.07.94 4.42a9.736 9.736 0 0 0-4.67 8.31z" opacity=".4"/><path stroke="#37a849" fill="none" d="M49.86 36.36h-8.3c-.55 0-1-.45-1-1s.45-1 1-1h8.3c.21 0 .4-.01.6-.02.22-.02.47-.04.71-.08a.65.65 0 0 0 .22-.04c4.21-.79 7.21-4.4 7.21-8.61 0-4.82-3.92-8.73-8.74-8.73-.84 0-1.66.12-2.44.35-.15.03-.21.06-.28.08l-.11.03c-.31.1-.65.03-.91-.17s-.4-.52-.38-.84c.01-.16.01-.31.01-.46 0-2.17-.8-4.25-2.26-5.86A8.768 8.768 0 0 0 37 7.13c-.84 0-1.66.12-2.44.35-1.12.32-2.15.86-3.06 1.6-.24.2-.56.27-.86.2-.29-.07-.54-.28-.67-.56C28.35 5.25 24.84 3 21.01 3c-5.45 0-9.88 4.43-9.88 9.88 0 1.4.29 2.75.86 4.01.21.46.04 1-.39 1.27a8.648 8.648 0 0 0-4.19 7.45c0 .11 0 .21.01.32a8.71 8.71 0 0 0 8.74 8.42h6.04c.55 0 1 .45 1 1s-.45 1-1 1h-6.04A10.7 10.7 0 0 1 5.43 26.04c-.01-.13-.01-.27-.01-.43 0-3.49 1.64-6.68 4.44-8.69a11.77 11.77 0 0 1-.71-4.04C9.12 6.33 14.45 1 21.01 1c4.2 0 8.09 2.25 10.21 5.82.86-.56 1.8-.98 2.78-1.26.95-.29 1.97-.43 3-.43 3.01 0 5.91 1.28 7.95 3.52 1.63 1.81 2.6 4.07 2.77 6.45.68-.14 1.41-.22 2.14-.22 5.92 0 10.74 4.82 10.74 10.73 0 5.17-3.68 9.61-8.76 10.55-.08.03-.24.06-.41.07-.23.04-.55.08-.86.1-.24.02-.47.03-.71.03z"/><path fill="none" stroke="#37a849" d="m40.56 42.05-7.69 7.68c-.7.84-1.99.84-2.7 0l-7.68-7.68c-.73-.87-.11-2.21 1.03-2.21h3.37V26.01h9.27v13.83h3.37c1.15 0 1.77 1.34 1.03 2.21z"/><path fill="none" stroke="#37a849" d="M30.09 26.01v11.63c0 1.19.96 2.15 2.15 2.15h3.92V26.01h-6.07z" opacity=".4"/><path fill="none" stroke="#37a849" d="M31.52 51.35c-.82 0-1.59-.36-2.11-.99l-7.62-7.61c-.65-.77-.78-1.73-.39-2.56a2.31 2.31 0 0 1 2.13-1.35h2.37V26.01c0-.55.45-1 1-1h9.27c.55 0 1 .45 1 1v12.83h2.37c.92 0 1.74.52 2.13 1.35.39.84.26 1.79-.33 2.5l-.06.06-7.69 7.68c-.48.57-1.25.92-2.07.92zm-8-10.51c-.19 0-.28.12-.31.2-.04.07-.08.22.05.37l7.62 7.61c.26.3.51.34.64.34s.38-.04.58-.27l7.71-7.7c.1-.14.06-.27.03-.34a.329.329 0 0 0-.31-.2h-3.37c-.55 0-1-.45-1-1V27.01h-7.27v12.83c0 .55-.45 1-1 1h-3.37zm17.04 1.21z"/><path fill="none" stroke="#37a849" d="M52.53 48.2v12.33c0 1.92-1.56 3.48-3.48 3.48H14c-1.92 0-3.48-1.56-3.48-3.48V48.2c0-.71.58-1.29 1.29-1.29H15c.71 0 1.29.58 1.29 1.29v8.88c0 .64.52 1.16 1.16 1.16H45.6c.64 0 1.16-.52 1.16-1.16V48.2c0-.71.58-1.29 1.29-1.29h3.2c.71 0 1.28.58 1.28 1.29z"/><path fill="none" stroke="#37a849" d="M49.06 65H14c-2.47 0-4.48-2.01-4.48-4.48V48.2c0-1.26 1.03-2.29 2.29-2.29H15c1.26 0 2.29 1.03 2.29 2.29v8.88c0 .09.07.16.16.16H45.6c.09 0 .16-.07.16-.16V48.2c0-1.26 1.03-2.29 2.29-2.29h3.2c1.26 0 2.29 1.03 2.29 2.29v12.33c-.01 2.46-2.02 4.47-4.48 4.47zM11.81 47.91a.29.29 0 0 0-.29.29v12.33A2.48 2.48 0 0 0 14 63.01h35.06a2.48 2.48 0 0 0 2.48-2.48V48.2a.29.29 0 0 0-.29-.29h-3.2a.29.29 0 0 0-.29.29v8.88c0 1.19-.97 2.16-2.16 2.16H17.45c-1.19 0-2.16-.97-2.16-2.16V48.2a.29.29 0 0 0-.29-.29h-3.19z"/></svg>